<mxfile host="65bd71144e">
    <diagram id="cD52tqRjU22jmfu8s6Lm" name="Page-1">
        <mxGraphModel dx="1060" dy="1698" grid="1" gridSize="10" guides="1" tooltips="1" connect="1" arrows="1" fold="1" page="1" pageScale="1" pageWidth="850" pageHeight="1100" math="0" shadow="0">
            <root>
                <mxCell id="0"/>
                <mxCell id="1" parent="0"/>
                <mxCell id="164" value="" style="rounded=0;whiteSpace=wrap;html=1;strokeColor=none;sketch=1;fillStyle=cross-hatch;fillColor=#E6E6E6;strokeWidth=1;" parent="1" vertex="1">
                    <mxGeometry x="400" y="0.37999999999999545" width="160" height="160" as="geometry"/>
                </mxCell>
                <mxCell id="165" value="" style="rounded=0;whiteSpace=wrap;html=1;strokeColor=none;sketch=1;fillStyle=cross-hatch;fillColor=#E6E6E6;strokeWidth=1;" parent="1" vertex="1">
                    <mxGeometry x="200" y="-2.275957200481571e-15" width="160" height="160" as="geometry"/>
                </mxCell>
                <mxCell id="166" value="" style="rounded=0;whiteSpace=wrap;html=1;strokeColor=none;sketch=1;fillStyle=cross-hatch;fillColor=#E6E6E6;strokeWidth=1;" parent="1" vertex="1">
                    <mxGeometry width="160" height="160" as="geometry"/>
                </mxCell>
                <mxCell id="167" value="" style="endArrow=none;dashed=1;html=1;" parent="1" edge="1">
                    <mxGeometry width="50" height="50" relative="1" as="geometry">
                        <mxPoint as="sourcePoint"/>
                        <mxPoint x="160" as="targetPoint"/>
                    </mxGeometry>
                </mxCell>
                <mxCell id="168" value="" style="endArrow=none;dashed=1;html=1;" parent="1" edge="1">
                    <mxGeometry width="50" height="50" relative="1" as="geometry">
                        <mxPoint as="sourcePoint"/>
                        <mxPoint y="160" as="targetPoint"/>
                    </mxGeometry>
                </mxCell>
                <mxCell id="169" value="" style="endArrow=none;dashed=1;html=1;" parent="1" edge="1">
                    <mxGeometry width="50" height="50" relative="1" as="geometry">
                        <mxPoint y="159.75" as="sourcePoint"/>
                        <mxPoint x="160" y="159.75" as="targetPoint"/>
                    </mxGeometry>
                </mxCell>
                <mxCell id="170" value="" style="endArrow=none;dashed=1;html=1;" parent="1" edge="1">
                    <mxGeometry width="50" height="50" relative="1" as="geometry">
                        <mxPoint x="200.00000000000017" as="sourcePoint"/>
                        <mxPoint x="359.9999999999997" as="targetPoint"/>
                    </mxGeometry>
                </mxCell>
                <mxCell id="171" value="" style="endArrow=none;dashed=1;html=1;" parent="1" edge="1">
                    <mxGeometry width="50" height="50" relative="1" as="geometry">
                        <mxPoint x="200.00000000000017" as="sourcePoint"/>
                        <mxPoint x="200.00000000000017" y="160" as="targetPoint"/>
                    </mxGeometry>
                </mxCell>
                <mxCell id="172" value="" style="endArrow=none;dashed=1;html=1;" parent="1" edge="1">
                    <mxGeometry width="50" height="50" relative="1" as="geometry">
                        <mxPoint x="359.9999999999997" as="sourcePoint"/>
                        <mxPoint x="359.9999999999997" y="160" as="targetPoint"/>
                    </mxGeometry>
                </mxCell>
                <mxCell id="174" value="" style="endArrow=none;dashed=1;html=1;" parent="1" edge="1">
                    <mxGeometry width="50" height="50" relative="1" as="geometry">
                        <mxPoint x="400" y="0.19000000000005457" as="sourcePoint"/>
                        <mxPoint x="560" y="0.19000000000005457" as="targetPoint"/>
                    </mxGeometry>
                </mxCell>
                <mxCell id="179" value="" style="rounded=0;whiteSpace=wrap;html=1;strokeColor=none;fillColor=#f8cecc;perimeterSpacing=0;" parent="1" vertex="1">
                    <mxGeometry x="40" y="40" width="80" height="100" as="geometry"/>
                </mxCell>
                <mxCell id="182" value="" style="rounded=0;whiteSpace=wrap;html=1;strokeColor=none;fillColor=#f8cecc;perimeterSpacing=0;" parent="1" vertex="1">
                    <mxGeometry x="440" y="20" width="80" height="100" as="geometry"/>
                </mxCell>
                <mxCell id="184" value="" style="endArrow=block;dashed=1;html=1;fontFamily=Lucida Console;dashPattern=1 2;entryX=0.5;entryY=0;entryDx=0;entryDy=0;exitX=0.5;exitY=0;exitDx=0;exitDy=0;endFill=1;endSize=4;" parent="1" target="179" edge="1">
                    <mxGeometry width="50" height="50" relative="1" as="geometry">
                        <mxPoint x="80" y="-1.4210854715202004e-14" as="sourcePoint"/>
                        <mxPoint x="120" y="-1.4210854715202004e-14" as="targetPoint"/>
                    </mxGeometry>
                </mxCell>
                <mxCell id="185" value="" style="endArrow=block;dashed=1;html=1;fontFamily=Lucida Console;dashPattern=1 2;entryX=0.5;entryY=1;entryDx=0;entryDy=0;endFill=1;endSize=4;" parent="1" target="182" edge="1">
                    <mxGeometry width="50" height="50" relative="1" as="geometry">
                        <mxPoint x="480" y="160" as="sourcePoint"/>
                        <mxPoint x="520" y="80.15000000000009" as="targetPoint"/>
                    </mxGeometry>
                </mxCell>
                <mxCell id="187" value="" style="endArrow=none;dashed=1;html=1;" parent="1" edge="1">
                    <mxGeometry width="50" height="50" relative="1" as="geometry">
                        <mxPoint x="400" y="5.684341886080802e-14" as="sourcePoint"/>
                        <mxPoint x="400" y="160" as="targetPoint"/>
                    </mxGeometry>
                </mxCell>
                <mxCell id="188" value="" style="endArrow=none;dashed=1;html=1;" parent="1" edge="1">
                    <mxGeometry width="50" height="50" relative="1" as="geometry">
                        <mxPoint x="560" y="5.684341886080802e-14" as="sourcePoint"/>
                        <mxPoint x="560" y="160" as="targetPoint"/>
                    </mxGeometry>
                </mxCell>
                <mxCell id="189" value="" style="endArrow=none;dashed=1;html=1;" parent="1" edge="1">
                    <mxGeometry width="50" height="50" relative="1" as="geometry">
                        <mxPoint x="160" as="sourcePoint"/>
                        <mxPoint x="160" y="160" as="targetPoint"/>
                    </mxGeometry>
                </mxCell>
                <mxCell id="190" value="" style="rounded=0;whiteSpace=wrap;html=1;strokeColor=none;fillColor=#f8cecc;perimeterSpacing=0;" parent="1" vertex="1">
                    <mxGeometry x="240" y="20" width="80" height="120" as="geometry"/>
                </mxCell>
                <mxCell id="191" value="" style="endArrow=none;dashed=1;html=1;" parent="1" edge="1">
                    <mxGeometry width="50" height="50" relative="1" as="geometry">
                        <mxPoint x="200.00000000000023" y="160" as="sourcePoint"/>
                        <mxPoint x="359.9999999999998" y="160" as="targetPoint"/>
                    </mxGeometry>
                </mxCell>
                <mxCell id="192" value="" style="endArrow=none;dashed=1;html=1;" parent="1" edge="1">
                    <mxGeometry width="50" height="50" relative="1" as="geometry">
                        <mxPoint x="400" y="160" as="sourcePoint"/>
                        <mxPoint x="560" y="160" as="targetPoint"/>
                    </mxGeometry>
                </mxCell>
                <mxCell id="186" value="" style="endArrow=none;dashed=1;html=1;entryX=1;entryY=0.5;entryDx=0;entryDy=0;" parent="1" target="165" edge="1">
                    <mxGeometry width="50" height="50" relative="1" as="geometry">
                        <mxPoint x="201.43" y="80" as="sourcePoint"/>
                        <mxPoint x="281.2599999999999" y="160.00000000000006" as="targetPoint"/>
                    </mxGeometry>
                </mxCell>
            </root>
        </mxGraphModel>
    </diagram>
</mxfile>